<svg version="1.1" xmlns="http://www.w3.org/2000/svg" style="display: block;" viewBox="0 0 2000 1996" width="500" height="499" preserveAspectRatio="none">
<path transform="translate(0,0)" fill="rgb(144,201,247)" d="M 711.627 1122.24 C 711.578 1121.99 711.529 1121.73 711.48 1121.48 L 711.264 1120.21 C 710.993 1118.7 710.458 1116.35 710.452 1114.88 C 710.262 1065.74 708.286 1016.41 709.655 967.294 C 710.558 934.911 710.836 902.462 713.894 870.246 C 724.974 753.507 782.219 641.944 871.893 566.169 C 933.193 514.323 1006.53 478.705 1085.18 462.582 C 1106.92 458.182 1137.94 454.939 1160.59 454.148 C 1246.01 451.167 1331.62 471.402 1406.03 513.683 C 1422.53 523.057 1444.89 535.825 1458.64 547.913 C 1474.45 538.962 1499.11 536.209 1516.09 541.787 C 1535.73 548.236 1560.9 577.221 1575.53 591.903 L 1634.79 651.155 L 1733.09 749.469 C 1748.64 765.06 1766.39 782.796 1781.82 798.268 C 1800.29 816.789 1809.83 827.142 1812.64 851.98 C 1817.51 894.992 1768.41 931.789 1730.04 915.48 C 1699.34 902.431 1666.07 854.805 1637.97 833.756 C 1636.54 834.629 1637.12 834.013 1636.36 835.705 C 1644.05 872.814 1643.46 941.837 1643.56 980.693 L 1643.81 1159.27 L 1643.76 1350.78 C 1643.71 1403.33 1645.47 1458.72 1636.81 1510.51 C 1611.58 1661.48 1510.63 1790.05 1372.16 1854.27 C 1254.12 1909.02 1108.81 1909.84 990.038 1856.75 C 962.697 1844.53 921.849 1824.89 901.224 1803.67 C 883.362 1796.14 865.354 1793.26 847.192 1787.35 C 801.78 1772.56 753.946 1752.37 713.532 1726.42 C 685.9 1708.68 648.58 1680.61 626.973 1655.19 C 622.521 1649.01 619.985 1641.88 618.286 1634.58 C 610.634 1601.7 630.28 1567.19 664.409 1560.66 C 700.133 1553.84 710.15 1568.31 736.86 1586.44 C 736.41 1584.46 736.668 1585.25 736.074 1583.66 C 710.213 1514.62 709.982 1438.4 708.912 1365.6 C 708.685 1350.16 708.016 1321.42 711.727 1307.75 C 712.504 1300.67 810.68 1209.9 821.88 1194.34 C 826.779 1187.53 831.878 1181.12 834.387 1172.42 C 852.337 1110.15 780.059 1064.98 730.959 1106.38 C 726.834 1109.85 715.195 1121.98 712.079 1123.53 L 711.627 1122.24 z"/>
<path transform="translate(0,0)" fill="rgb(23,26,64)" d="M 1458.64 547.913 C 1474.45 538.962 1499.11 536.209 1516.09 541.787 C 1535.73 548.236 1560.9 577.221 1575.53 591.903 L 1634.79 651.155 L 1733.09 749.469 C 1748.64 765.06 1766.39 782.796 1781.82 798.268 C 1800.29 816.789 1809.83 827.142 1812.64 851.98 C 1817.51 894.992 1768.41 931.789 1730.04 915.48 C 1699.34 902.431 1666.07 854.805 1637.97 833.756 C 1636.54 834.629 1637.12 834.013 1636.36 835.705 C 1644.05 872.814 1643.46 941.837 1643.56 980.693 L 1643.81 1159.27 L 1643.76 1350.78 C 1643.71 1403.33 1645.47 1458.72 1636.81 1510.51 C 1611.58 1661.48 1510.63 1790.05 1372.16 1854.27 C 1254.12 1909.02 1108.81 1909.84 990.038 1856.75 C 962.697 1844.53 921.849 1824.89 901.224 1803.67 C 908.54 1802.17 941.21 1809.56 951.742 1810.4 C 963.61 1811.34 975.281 1812.13 987.685 1812.56 C 1132.87 1817.52 1274.16 1765.06 1380.93 1666.55 C 1463.63 1590.67 1521.03 1491.22 1545.4 1381.66 C 1558.64 1322.46 1559.09 1281.48 1559.08 1221.34 L 1559.07 1125.03 L 1559.05 887.707 C 1559.05 844.958 1558.07 797.603 1559.52 755.197 C 1584.02 780.561 1610.61 805.122 1634.57 831.094 C 1635.94 832.578 1636.14 833.803 1636.36 835.705 C 1644.05 872.814 1643.46 941.837 1643.56 980.693 L 1643.81 1159.27 L 1643.76 1350.78 C 1643.71 1403.33 1645.47 1458.72 1636.81 1510.51 C 1611.58 1661.48 1510.63 1790.05 1372.16 1854.27 C 1254.12 1909.02 1108.81 1909.84 990.038 1856.75 C 962.697 1844.53 921.849 1824.89 901.224 1803.67 C 883.362 1796.14 865.354 1793.26 847.192 1787.35 C 801.78 1772.56 753.946 1752.37 713.532 1726.42 C 685.9 1708.68 648.58 1680.61 626.973 1655.19 C 622.521 1649.01 619.985 1641.88 618.286 1634.58 C 610.634 1601.7 630.28 1567.19 664.409 1560.66 C 700.133 1553.84 710.15 1568.31 736.86 1586.44 C 737.492 1587.07 738.13 1587.7 738.774 1588.32 C 749.742 1598.88 769.173 1611.97 782.234 1620.22 C 851.404 1664.15 932.062 1686.56 1013.98 1684.61 C 1127.32 1683.32 1235.34 1636.34 1313.55 1554.31 C 1361.7 1504.22 1398.33 1440.04 1416.87 1372.96 C 1434.2 1310.26 1432.33 1250.54 1432.31 1186.41 L 1432.29 1048.87 C 1432.29 952.19 1433.79 850.858 1431.92 754.6 C 1396.49 788.501 1361.38 826.832 1325.75 860.999 C 1310.21 874.626 1295.56 894.775 1278.89 906.675 C 1213.54 953.321 1140.6 867.391 1197.13 809.65 C 1217.26 789.085 1238.59 767.979 1258.78 747.744 L 1415.47 591.006 C 1419.43 587.028 1458.2 548.886 1458.64 547.913 z"/>
<path transform="translate(0,0)" fill="rgb(144,201,247)" d="M 1559.52 755.197 C 1584.02 780.561 1610.61 805.122 1634.57 831.094 C 1635.94 832.578 1636.14 833.803 1636.36 835.705 C 1644.05 872.814 1643.46 941.837 1643.56 980.693 L 1643.81 1159.27 L 1643.76 1350.78 C 1643.71 1403.33 1645.47 1458.72 1636.81 1510.51 C 1611.58 1661.48 1510.63 1790.05 1372.16 1854.27 C 1254.12 1909.02 1108.81 1909.84 990.038 1856.75 C 962.697 1844.53 921.849 1824.89 901.224 1803.67 C 908.54 1802.17 941.21 1809.56 951.742 1810.4 C 963.61 1811.34 975.281 1812.13 987.685 1812.56 C 1132.87 1817.52 1274.16 1765.06 1380.93 1666.55 C 1463.63 1590.67 1521.03 1491.22 1545.4 1381.66 C 1558.64 1322.46 1559.09 1281.48 1559.08 1221.34 L 1559.07 1125.03 L 1559.05 887.707 C 1559.05 844.958 1558.07 797.603 1559.52 755.197 z"/>
<path transform="translate(0,0)" fill="rgb(23,26,64)" d="M 456.246 1257.06 C 455.978 1254.74 455.751 1252.34 455.735 1250 L 456.23 931.068 L 456.225 803.154 C 456.203 774.673 455.629 743.105 457.272 714.868 C 461.624 632.778 484.853 552.798 525.154 481.149 C 547.295 441.863 578.061 399.175 609.685 366.849 C 681.12 292.418 772.194 239.765 872.341 214.996 C 914.851 204.218 946.87 200.885 991.503 198.905 C 1060.64 195.838 1083.09 286.104 1024.02 316.508 C 1008.03 324.735 968.116 324.755 947.714 327.764 C 855.946 340.895 770.968 383.611 705.683 449.427 C 629.911 526.206 584.802 626.906 581.466 734.792 C 580.68 760.198 580.134 785.237 580.119 810.663 L 580.131 932.144 L 581.091 1256 C 597.473 1239.75 705.787 1136.76 711.627 1122.24 L 712.079 1123.53 C 715.195 1121.98 726.834 1109.85 730.959 1106.38 C 780.059 1064.98 852.337 1110.15 834.387 1172.42 C 831.878 1181.12 826.779 1187.53 821.88 1194.34 C 810.68 1209.9 712.504 1300.67 711.727 1307.75 C 707.844 1306.58 691.677 1324.36 687.704 1328.32 C 659.581 1356.14 631.619 1384.11 603.821 1412.25 C 588.57 1427.69 570.791 1447 554.002 1460.58 C 544.696 1466.77 534.723 1470.18 523.728 1471.3 C 501.404 1473.57 483.263 1461.89 467.874 1446.95 C 454.557 1434.02 441.519 1420.77 428.401 1407.63 L 343.268 1322.46 L 261.277 1239.65 C 243.3 1221.55 224.522 1204.39 208.829 1184.05 C 204.188 1177.49 201.636 1165.85 201.183 1158.06 C 199.176 1123.61 222.794 1093.72 258.341 1092.07 C 285.517 1090.81 300.292 1099.65 318.885 1119.22 C 326.482 1127.21 335.519 1135.85 343.349 1143.72 L 418.735 1219.27 C 430.595 1231.19 444.137 1246.38 456.246 1257.06 z"/>
<path transform="translate(0,0)" fill="rgb(23,26,64)" d="M 1190.46 237.132 C 1235.99 234.265 1356.97 314.354 1384.54 349.889 C 1390.38 357.453 1394.53 366.185 1396.69 375.492 C 1405.28 413.063 1379.84 442.927 1344.22 450.792 C 1304.55 457.283 1281.28 420.478 1251.42 401.685 C 1233.4 390.35 1216.12 378.347 1196.96 368.775 C 1174.08 357.349 1144.22 347.759 1137.78 319.471 C 1134.28 303.481 1134.79 280.954 1143.76 266.634 C 1154.89 248.886 1170.94 241.997 1190.46 237.132 z"/>
</svg>
