<svg version="1.1" id="Layer_1" xmlns="http://www.w3.org/2000/svg" xmlns:xlink="http://www.w3.org/1999/xlink" x="0px" y="0px"
	 width="100%" viewBox="0 0 1080 1080" enable-background="new 0 0 1080 1080" xml:space="preserve">
<path fill="#000000" opacity="1.000000" stroke="none"
	d="
M575.000000,1081.000000
	C383.355408,1081.000000 192.210785,1081.000000 1.033089,1081.000000
	C1.033089,721.063599 1.033089,361.127197 1.033089,1.095402
	C360.894836,1.095402 720.789673,1.095402 1080.842285,1.095402
	C1080.842285,360.999939 1080.842285,720.999939 1080.842285,1081.000000
	C912.460022,1081.000000 743.980042,1081.000000 575.000000,1081.000000
M332.554321,322.588104
	C334.969910,316.640289 337.204651,310.609833 339.869781,304.776001
	C341.436768,301.346008 343.624542,298.188751 345.643829,294.978424
	C350.021576,288.018555 354.031616,280.768127 359.005737,274.258240
	C364.708221,266.795166 371.078400,259.802856 377.552429,252.979828
	C384.012665,246.171448 390.647400,239.458023 397.783203,233.381195
	C404.812866,227.394714 412.548553,222.233765 420.012817,216.762924
	C422.667999,214.816833 425.251282,212.639023 428.186554,211.233566
	C437.265442,206.886475 446.332367,202.429504 455.714294,198.822449
	C466.567719,194.649658 477.673889,191.075577 488.824402,187.759628
	C494.164886,186.171463 500.443573,186.926895 505.222656,184.502457
	C509.550262,182.307068 513.339294,182.779953 517.529907,182.721893
	C528.420288,182.571045 539.357117,182.557953 549.361755,177.184311
	C551.527527,176.021027 554.252014,175.547531 555.962158,173.947342
	C563.136963,167.233551 568.154480,159.309647 567.863159,148.984802
	C567.742065,144.693695 568.567383,139.889954 566.917175,136.245392
	C564.626099,131.185562 560.986328,126.379135 556.897034,122.565285
	C548.431763,114.670280 537.910645,112.080811 526.466492,113.365646
	C519.991028,114.092651 513.533813,114.981369 507.067474,115.790077
	C503.710815,116.209862 500.352173,116.614021 496.874054,116.860016
	C496.773712,116.799820 496.673401,116.739624 496.573090,116.679413
	C496.730225,116.774002 496.887360,116.868591 496.336670,117.259331
	C485.246368,119.264267 473.976746,120.593102 463.118530,123.473091
	C453.182892,126.108391 443.691956,130.420410 433.988708,133.894028
	C433.988708,133.894028 433.995361,134.003357 433.461761,134.217224
	C430.204620,135.670532 426.970367,137.177902 423.685516,138.565613
	C417.336548,141.247772 410.539795,143.158295 404.678741,146.648392
	C391.560669,154.459854 378.712494,162.767090 366.125977,171.413300
	C358.127899,176.907516 349.995178,182.605865 343.337372,189.565826
	C330.335297,203.157959 317.498810,217.072235 306.151367,232.034424
	C296.117584,245.264481 287.929016,259.939758 279.469879,274.297546
	C275.643738,280.791687 273.136810,288.063019 269.903809,295.229279
	C269.786957,295.503967 269.823486,295.759644 269.854553,296.666565
	C265.573730,309.440796 261.292877,322.214996 257.001556,334.999207
	C257.001556,334.999207 256.993744,335.008270 256.569702,335.599518
	C255.037781,344.409180 253.505844,353.218811 251.973419,361.808838
	C251.884003,361.790100 251.794571,361.771362 251.705154,361.752594
	C251.811340,361.831238 251.917526,361.909882 251.969162,362.669006
	C251.001572,367.956482 249.652664,373.208557 249.158020,378.539917
	C248.460236,386.061066 248.108093,393.640686 248.102661,401.195679
	C248.039627,488.860657 248.072922,576.525757 248.053207,664.190796
	C248.052811,666.018433 247.724442,667.846008 247.469543,670.502319
	C245.730728,669.010742 244.814377,668.321899 244.010406,667.520325
	C233.894135,657.433960 223.790970,647.334412 213.690643,637.231995
	C200.539810,624.078491 187.489029,610.822693 174.181427,597.829895
	C170.793335,594.521851 166.987381,591.014893 162.695312,589.384583
	C152.351196,585.455322 141.942123,584.977905 131.329010,590.110535
	C117.195831,596.945496 108.112679,617.100952 114.819565,630.602356
	C118.165581,637.338074 122.901291,643.611389 127.986710,649.204346
	C136.653992,658.736450 146.039429,667.621155 155.219894,676.679810
	C169.674271,690.942383 184.338654,704.994263 198.677856,719.371033
	C218.064606,738.808777 237.073334,758.626038 256.615692,777.903931
	C260.571960,781.806702 266.182190,784.032776 271.002869,787.007812
	C271.002869,787.007812 270.977417,786.982788 271.578705,787.414246
	C276.271179,788.169373 281.172211,790.167542 285.613037,789.422607
	C295.048889,787.839661 302.880310,782.707520 309.650208,775.719238
	C322.738647,762.208923 336.131226,748.991272 349.488495,735.743896
	C360.589355,724.734375 371.820404,713.856140 383.146820,703.856567
	C383.177734,705.517578 383.207245,707.178650 383.239777,708.839661
	C383.819641,738.451477 381.264557,768.165588 385.297913,797.651245
	C386.935730,809.624390 390.178589,821.380676 392.757690,833.221130
	C393.685394,837.479980 394.808502,841.696228 395.300598,845.574646
	C387.613098,838.725159 378.847839,834.440125 368.453430,833.300354
	C360.955505,832.478210 355.483459,836.423950 349.177185,839.308838
	C336.658142,845.035767 333.622589,855.913940 333.340240,867.384521
	C333.031158,879.939941 339.624084,890.097900 349.689575,897.690735
	C355.711395,902.233154 361.845428,906.628235 367.969147,911.033691
	C375.580780,916.509583 382.947815,922.401550 390.951874,927.233643
	C398.504578,931.793213 406.697845,935.313660 414.697296,939.105591
	C424.632172,943.815125 434.465424,948.832275 444.704559,952.776917
	C452.855896,955.917358 461.550476,957.647705 470.000000,960.000000
	C470.000000,960.000000 469.996399,959.996948 470.551788,960.480530
	C474.664856,961.994995 478.777924,963.509460 483.313751,965.583862
	C484.967499,966.572876 486.720917,967.427795 488.259583,968.571594
	C503.447235,979.862244 519.884827,989.047974 537.489563,995.786316
	C549.628723,1000.432739 562.414734,1003.367310 574.838196,1007.298889
	C589.693542,1012.000122 605.056580,1013.294678 620.437256,1013.838196
	C631.172791,1014.217651 641.955139,1012.975830 652.718567,1012.931580
	C666.963989,1012.873047 680.706421,1009.772461 694.302002,1006.211121
	C715.260010,1000.720947 735.252747,992.709839 754.144104,981.916748
	C772.333435,971.524963 788.886292,959.017151 803.841797,944.454163
	C811.402100,937.092224 818.802917,929.407654 825.191284,921.040833
	C833.389221,910.304077 841.226746,899.150879 847.909485,887.430176
	C859.127625,867.755066 867.107971,846.767334 872.416260,824.564880
	C876.152771,808.936462 878.706787,793.259216 878.816406,777.387451
	C879.214783,719.736023 879.482605,662.073669 878.787903,604.427673
	C878.184021,554.310364 882.023743,504.085266 876.448669,454.105743
	C878.012268,455.306427 879.721252,456.359283 881.115845,457.731659
	C890.497742,466.963562 899.357239,476.796234 909.334045,485.325470
	C914.653931,489.873505 921.591064,494.019714 928.301697,495.041748
	C935.333618,496.112732 943.001770,495.935394 950.458557,492.103577
	C959.009888,487.709259 964.249268,481.726654 967.008484,473.001160
	C967.008484,473.001160 966.977844,473.030548 967.321472,472.494324
	C967.478394,471.190247 967.782227,469.884399 967.766785,468.582367
	C967.699951,462.946625 968.967041,456.774353 967.092407,451.797943
	C963.969482,443.507843 958.299622,436.471100 951.707275,430.180969
	C934.898315,414.142639 918.326660,397.850800 901.868530,381.451263
	C890.340332,369.964142 879.282288,358.005829 867.780334,346.491730
	C857.101013,335.801147 845.620300,325.872101 835.409058,314.765106
	C826.740173,305.335785 818.168640,296.749847 804.940125,293.997620
	C799.307983,292.825806 794.248474,292.723175 788.992859,295.030975
	C788.992859,295.030975 788.921509,295.107880 788.314819,295.287506
	C785.884277,296.178833 783.453674,297.070160 780.608459,297.414062
	C774.567627,293.312683 768.838745,288.620850 762.422119,285.230774
	C748.336609,277.789124 734.214539,270.254303 719.522583,264.169556
	C705.309753,258.283203 690.562134,253.505798 675.000061,252.022736
	C663.468018,250.923737 651.997437,248.653412 640.456421,248.296982
	C622.221802,247.733795 603.892029,247.993683 585.983765,252.203674
	C572.879028,255.284409 559.638000,258.189331 546.973267,262.639648
	C529.631958,268.733307 512.836548,276.363861 497.832916,287.280243
	C486.728241,295.359833 475.010284,302.824677 464.983063,312.096405
	C453.651337,322.574341 443.103790,334.151123 433.698120,346.389679
	C424.611206,358.213470 416.576569,371.048981 409.635834,384.257721
	C403.605225,395.734406 399.630219,408.308167 394.959930,420.478882
	C387.276703,440.501373 383.781219,461.570526 383.333099,482.730988
	C382.479828,523.023193 383.229858,563.349426 383.028229,604.349854
	C381.525665,606.317139 380.221741,608.482239 378.490112,610.221436
	C359.583435,629.210083 340.615143,648.137451 321.640381,667.058167
	C320.555786,668.139709 319.268921,669.018250 317.240295,670.673035
	C317.059570,667.856628 316.866608,666.250793 316.866364,664.645020
	C316.855133,587.821106 316.806000,510.997101 316.910461,434.173279
	C316.931274,418.876434 317.574127,403.580841 317.843384,388.283142
	C317.868683,386.844971 317.268188,385.395752 316.978821,383.973663
	C316.978821,383.973663 316.999939,383.985931 317.005066,383.087830
	C318.341644,374.718506 319.678223,366.349152 321.023621,358.055664
	C321.023621,358.055664 320.975494,358.019897 321.158539,357.340546
	C324.107300,347.911530 327.050568,338.480774 330.009125,329.054810
	C330.645813,327.026428 331.337646,325.015350 332.000000,323.000000
	C332.000000,323.000000 331.996704,323.003845 332.554321,322.588104
M729.840027,182.502396
	C724.443604,178.653839 719.071411,174.770798 713.645020,170.964966
	C705.970154,165.582169 698.324524,160.152802 690.528748,154.949554
	C686.569946,152.307343 682.377319,149.989197 678.166748,147.758102
	C674.094788,145.600494 669.656738,144.079865 665.748779,141.678558
	C658.927979,137.487366 652.235779,133.411438 643.695557,134.808228
	C641.913025,135.099777 640.009949,135.022095 638.209717,134.772873
	C631.369568,133.825928 625.941956,137.536545 621.104614,141.087128
	C615.097168,145.496521 610.180420,151.338531 610.133789,159.709763
	C610.125854,161.137619 609.603271,162.788467 608.772888,163.944397
	C606.068054,167.709503 607.577148,171.153336 609.150696,174.678009
	C609.620300,175.729828 610.378906,176.804565 610.399963,177.880676
	C610.572205,186.663895 616.450317,191.869507 622.868958,195.873123
	C630.939758,200.907242 639.767151,204.731110 648.281616,209.050537
	C663.582031,216.812485 677.207703,227.018478 689.881165,238.425034
	C700.284241,247.788177 717.339539,253.136063 730.996643,244.468842
	C741.961609,237.510162 750.540710,224.463989 748.783325,212.439957
	C746.966919,200.012070 740.767273,190.039307 729.840027,182.502396
z"/>
<path fill="#1F4CBF" opacity="1.000000" stroke="none"
	d="
M395.842407,845.931946
	C394.808502,841.696228 393.685394,837.479980 392.757690,833.221130
	C390.178589,821.380676 386.935730,809.624390 385.297913,797.651245
	C381.264557,768.165588 383.819641,738.451477 383.239777,708.839661
	C383.207245,707.178650 383.177734,705.517578 383.270935,703.125732
	C390.602386,694.820618 397.704437,687.142578 405.040741,679.695312
	C417.405090,667.143982 430.239807,655.039795 442.266876,642.177368
	C451.935822,631.836914 453.606171,616.329346 447.022278,604.030884
	C440.132446,591.161011 428.899658,585.371033 414.477722,586.225952
	C403.890991,586.853516 395.876404,592.640015 388.878174,600.205322
	C387.448669,601.750610 385.190399,602.529358 383.314178,603.661499
	C383.229858,563.349426 382.479828,523.023193 383.333099,482.730988
	C383.781219,461.570526 387.276703,440.501373 394.959930,420.478882
	C399.630219,408.308167 403.605225,395.734406 409.635834,384.257721
	C416.576569,371.048981 424.611206,358.213470 433.698120,346.389679
	C443.103790,334.151123 453.651337,322.574341 464.983063,312.096405
	C475.010284,302.824677 486.728241,295.359833 497.832916,287.280243
	C512.836548,276.363861 529.631958,268.733307 546.973267,262.639648
	C559.638000,258.189331 572.879028,255.284409 585.983765,252.203674
	C603.892029,247.993683 622.221802,247.733795 640.456421,248.296982
	C651.997437,248.653412 663.468018,250.923737 675.000061,252.022736
	C690.562134,253.505798 705.309753,258.283203 719.522583,264.169556
	C734.214539,270.254303 748.336609,277.789124 762.422119,285.230774
	C768.838745,288.620850 774.567627,293.312683 780.585815,297.934418
	C779.757629,299.499939 779.057251,300.650391 778.131348,301.575043
	C740.177551,339.477295 702.175720,377.331329 664.252563,415.264130
	C655.307922,424.211090 645.990051,432.894867 637.962097,442.622498
	C626.108826,456.985260 629.693542,478.558075 644.805237,489.477264
	C659.629089,500.188477 677.637634,497.655334 692.082153,483.066772
	C715.054321,459.865601 738.133850,436.770630 761.184692,413.647400
	C762.285950,412.542694 763.548523,411.598724 765.717651,409.737610
	C765.867981,412.952026 766.034851,414.859283 766.035217,416.766571
	C766.050781,504.397125 766.090149,592.027771 765.991333,679.658203
	C765.982178,687.799622 765.674988,696.025330 764.509521,704.067444
	C754.107300,775.845215 718.843750,832.228943 656.264709,868.966187
	C585.787842,910.339905 512.647583,912.539917 438.998138,876.038879
	C423.149628,868.184143 408.203796,858.867126 395.842407,845.931946
z"/>
<path fill="#1A1C42" opacity="1.000000" stroke="none"
	d="
M395.571503,845.753296
	C408.203796,858.867126 423.149628,868.184143 438.998138,876.038879
	C512.647583,912.539917 585.787842,910.339905 656.264709,868.966187
	C718.843750,832.228943 754.107300,775.845215 764.509521,704.067444
	C765.674988,696.025330 765.982178,687.799622 765.991333,679.658203
	C766.090149,592.027771 766.050781,504.397125 766.035217,416.766571
	C766.034851,414.859283 765.867981,412.952026 765.717651,409.737610
	C763.548523,411.598724 762.285950,412.542694 761.184692,413.647400
	C738.133850,436.770630 715.054321,459.865601 692.082153,483.066772
	C677.637634,497.655334 659.629089,500.188477 644.805237,489.477264
	C629.693542,478.558075 626.108826,456.985260 637.962097,442.622498
	C645.990051,432.894867 655.307922,424.211090 664.252563,415.264130
	C702.175720,377.331329 740.177551,339.477295 778.131348,301.575043
	C779.057251,300.650391 779.757629,299.499939 780.793213,298.208130
	C783.453674,297.070160 785.884277,296.178833 788.655396,295.228943
	C788.996033,295.170380 789.066711,294.956512 789.066711,294.956512
	C794.248474,292.723175 799.307983,292.825806 804.940125,293.997620
	C818.168640,296.749847 826.740173,305.335785 835.409058,314.765106
	C845.620300,325.872101 857.101013,335.801147 867.780334,346.491730
	C879.282288,358.005829 890.340332,369.964142 901.868530,381.451263
	C918.326660,397.850800 934.898315,414.142639 951.707275,430.180969
	C958.299622,436.471100 963.969482,443.507843 967.092407,451.797943
	C968.967041,456.774353 967.699951,462.946625 967.766785,468.582367
	C967.782227,469.884399 967.478394,471.190247 967.147705,472.735168
	C966.973877,472.975983 967.035583,472.968475 967.035583,472.968475
	C964.249268,481.726654 959.009888,487.709259 950.458557,492.103577
	C943.001770,495.935394 935.333618,496.112732 928.301697,495.041748
	C921.591064,494.019714 914.653931,489.873505 909.334045,485.325470
	C899.357239,476.796234 890.497742,466.963562 881.115845,457.731659
	C879.721252,456.359283 878.012268,455.306427 876.146606,454.056335
	C875.844482,454.006897 875.920959,454.117889 875.920044,453.821167
	C875.619385,453.024414 875.319641,452.524323 874.845825,451.730896
	C873.514038,449.822205 872.547363,448.018188 871.168213,446.621277
	C859.813782,435.120209 848.391418,423.686035 836.957458,412.263763
	C836.112549,411.419586 835.017822,410.825378 833.372925,409.631256
	C833.260864,412.157227 833.126526,413.775146 833.126221,415.393066
	C833.111206,503.374084 833.154602,591.355164 833.037170,679.336060
	C833.023865,689.316040 832.642334,699.354736 831.523621,709.263672
	C827.096191,748.479370 815.362122,785.426208 795.794250,819.756714
	C764.536987,874.595764 720.099243,915.334778 662.949829,941.864563
	C607.119324,967.782104 548.525757,973.552551 488.081207,963.869934
	C486.454468,963.609436 484.625610,964.610901 482.891022,965.023865
	C478.777924,963.509460 474.664856,961.994995 470.296265,960.227661
	C470.040771,959.974854 470.003876,960.004150 470.003876,960.004150
	C461.550476,957.647705 452.855896,955.917358 444.704559,952.776917
	C434.465424,948.832275 424.632172,943.815125 414.697296,939.105591
	C406.697845,935.313660 398.504578,931.793213 390.951874,927.233643
	C382.947815,922.401550 375.580780,916.509583 367.969147,911.033691
	C361.845428,906.628235 355.711395,902.233154 349.689575,897.690735
	C339.624084,890.097900 333.031158,879.939941 333.340240,867.384521
	C333.622589,855.913940 336.658142,845.035767 349.177185,839.308838
	C355.483459,836.423950 360.955505,832.478210 368.453430,833.300354
	C378.847839,834.440125 387.613098,838.725125 395.571503,845.753296
z"/>
<path fill="#1A1B40" opacity="1.000000" stroke="none"
	d="
M383.171204,604.005676
	C385.190399,602.529358 387.448669,601.750610 388.878174,600.205322
	C395.876404,592.640015 403.890991,586.853516 414.477722,586.225952
	C428.899658,585.371033 440.132446,591.161011 447.022278,604.030884
	C453.606171,616.329346 451.935822,631.836914 442.266876,642.177368
	C430.239807,655.039795 417.405090,667.143982 405.040741,679.695312
	C397.704437,687.142578 390.602386,694.820618 383.194397,702.657349
	C371.820404,713.856140 360.589355,724.734375 349.488495,735.743896
	C336.131226,748.991272 322.738647,762.208923 309.650208,775.719238
	C302.880310,782.707520 295.048889,787.839661 285.613037,789.422607
	C281.172211,790.167542 276.271179,788.169373 271.307526,787.196045
	C271.036346,786.977783 271.029877,787.031921 271.029877,787.031921
	C266.182190,784.032776 260.571960,781.806702 256.615692,777.903931
	C237.073334,758.626038 218.064606,738.808777 198.677856,719.371033
	C184.338654,704.994263 169.674271,690.942383 155.219894,676.679810
	C146.039429,667.621155 136.653992,658.736450 127.986710,649.204346
	C122.901291,643.611389 118.165581,637.338074 114.819565,630.602356
	C108.112679,617.100952 117.195831,596.945496 131.329010,590.110535
	C141.942123,584.977905 152.351196,585.455322 162.695312,589.384583
	C166.987381,591.014893 170.793335,594.521851 174.181427,597.829895
	C187.489029,610.822693 200.539810,624.078491 213.690643,637.231995
	C223.790970,647.334412 233.894135,657.433960 244.010406,667.520325
	C244.814377,668.321899 245.730728,669.010742 247.469543,670.502319
	C247.724442,667.846008 248.052811,666.018433 248.053207,664.190796
	C248.072922,576.525757 248.039627,488.860657 248.102661,401.195679
	C248.108093,393.640686 248.460236,386.061066 249.158020,378.539917
	C249.652664,373.208557 251.001572,367.956482 251.983383,362.337769
	C251.997604,362.006561 251.973923,362.028473 251.973923,362.028473
	C253.505844,353.218811 255.037781,344.409180 256.796936,335.329529
	C257.024139,335.059570 257.012024,334.989227 257.012024,334.989227
	C261.292877,322.214996 265.573730,309.440796 269.926880,296.338013
	C269.999207,296.009430 269.991119,296.026367 270.004700,295.891235
	C270.060272,295.486389 270.051697,295.218842 270.000641,294.963135
	C270.008759,294.972839 270.031372,294.981781 270.031372,294.981781
	C273.136810,288.063019 275.643738,280.791687 279.469879,274.297546
	C287.929016,259.939758 296.117584,245.264481 306.151367,232.034424
	C317.498810,217.072235 330.335297,203.157959 343.337372,189.565826
	C349.995178,182.605865 358.127899,176.907516 366.125977,171.413300
	C378.712494,162.767090 391.560669,154.459854 404.678741,146.648392
	C410.539795,143.158295 417.336548,141.247772 423.685516,138.565613
	C426.970367,137.177902 430.204620,135.670532 433.730896,134.108551
	C434.000000,133.999878 434.005066,133.993546 434.005066,133.993546
	C443.691956,130.420410 453.182892,126.108391 463.118530,123.473091
	C473.976746,120.593102 485.246368,119.264267 496.676941,117.126053
	C497.017181,116.992783 496.994446,117.025253 496.994446,117.025253
	C500.352173,116.614021 503.710815,116.209862 507.067474,115.790077
	C513.533813,114.981369 519.991028,114.092651 526.466492,113.365646
	C537.910645,112.080811 548.431763,114.670280 556.897034,122.565285
	C560.986328,126.379135 564.626099,131.185562 566.917175,136.245392
	C568.567383,139.889954 567.742065,144.693695 567.863159,148.984802
	C568.154480,159.309647 563.136963,167.233551 555.962158,173.947342
	C554.252014,175.547531 551.527527,176.021027 549.361755,177.184311
	C539.357117,182.557953 528.420288,182.571045 517.529907,182.721893
	C513.339294,182.779953 509.550262,182.307068 505.222656,184.502457
	C500.443573,186.926895 494.164886,186.171463 488.824402,187.759628
	C477.673889,191.075577 466.567719,194.649658 455.714294,198.822449
	C446.332367,202.429504 437.265442,206.886475 428.186554,211.233566
	C425.251282,212.639023 422.667999,214.816833 420.012817,216.762924
	C412.548553,222.233765 404.812866,227.394714 397.783203,233.381195
	C390.647400,239.458023 384.012665,246.171448 377.552429,252.979828
	C371.078400,259.802856 364.708221,266.795166 359.005737,274.258240
	C354.031616,280.768127 350.021576,288.018555 345.643829,294.978424
	C343.624542,298.188751 341.436768,301.346008 339.869781,304.776001
	C337.204651,310.609833 334.969910,316.640289 332.259277,322.782104
	C331.964233,322.976135 332.004089,322.996307 332.004089,322.996307
	C331.337646,325.015350 330.645813,327.026428 330.009125,329.054810
	C327.050568,338.480774 324.107300,347.911530 321.077454,357.670563
	C320.996338,358.000580 321.014801,357.979828 321.014801,357.979828
	C319.678223,366.349152 318.341644,374.718506 316.882324,383.801453
	C316.620300,385.406738 316.481079,386.298401 316.341827,387.190033
	C316.490906,387.209473 316.639954,387.228912 316.789001,387.248322
	C316.845428,386.149445 316.901825,385.050537 316.958252,383.951660
	C317.268188,385.395752 317.868683,386.844971 317.843384,388.283142
	C317.574127,403.580841 316.931274,418.876434 316.910461,434.173279
	C316.806000,510.997101 316.855133,587.821106 316.866364,664.645020
	C316.866608,666.250793 317.059570,667.856628 317.240295,670.673035
	C319.268921,669.018250 320.555786,668.139709 321.640381,667.058167
	C340.615143,648.137451 359.583435,629.210083 378.490112,610.221436
	C380.221741,608.482239 381.525665,606.317139 383.171204,604.005676
z"/>
<path fill="#204BBE" opacity="1.000000" stroke="none"
	d="
M483.102386,965.303833
	C484.625610,964.610901 486.454468,963.609436 488.081207,963.869934
	C548.525757,973.552551 607.119324,967.782104 662.949829,941.864563
	C720.099243,915.334778 764.536987,874.595764 795.794250,819.756714
	C815.362122,785.426208 827.096191,748.479370 831.523621,709.263672
	C832.642334,699.354736 833.023865,689.316040 833.037170,679.336060
	C833.154602,591.355164 833.111206,503.374084 833.126221,415.393066
	C833.126526,413.775146 833.260864,412.157227 833.372925,409.631256
	C835.017822,410.825378 836.112549,411.419586 836.957458,412.263763
	C848.391418,423.686035 859.813782,435.120209 871.168213,446.621277
	C872.547363,448.018188 873.514038,449.822205 874.803833,452.054077
	C875.264221,453.152985 875.592590,453.635437 875.920959,454.117889
	C875.920959,454.117889 875.844482,454.006897 875.788757,454.044617
	C882.023743,504.085266 878.184021,554.310364 878.787903,604.427673
	C879.482605,662.073669 879.214783,719.736023 878.816406,777.387451
	C878.706787,793.259216 876.152771,808.936462 872.416260,824.564880
	C867.107971,846.767334 859.127625,867.755066 847.909485,887.430176
	C841.226746,899.150879 833.389221,910.304077 825.191284,921.040833
	C818.802917,929.407654 811.402100,937.092224 803.841797,944.454163
	C788.886292,959.017151 772.333435,971.524963 754.144104,981.916748
	C735.252747,992.709839 715.260010,1000.720947 694.302002,1006.211121
	C680.706421,1009.772461 666.963989,1012.873047 652.718567,1012.931580
	C641.955139,1012.975830 631.172791,1014.217651 620.437256,1013.838196
	C605.056580,1013.294678 589.693542,1012.000122 574.838196,1007.298889
	C562.414734,1003.367310 549.628723,1000.432739 537.489563,995.786316
	C519.884827,989.047974 503.447235,979.862244 488.259583,968.571594
	C486.720917,967.427795 484.967499,966.572876 483.102386,965.303833
z"/>
<path fill="#1A1B3F" opacity="1.000000" stroke="none"
	d="
M730.041199,182.718170
	C740.767273,190.039307 746.966919,200.012070 748.783325,212.439957
	C750.540710,224.463989 741.961609,237.510162 730.996643,244.468842
	C717.339539,253.136063 700.284241,247.788177 689.881165,238.425034
	C677.207703,227.018478 663.582031,216.812485 648.281616,209.050537
	C639.767151,204.731110 630.939758,200.907242 622.868958,195.873123
	C616.450317,191.869507 610.572205,186.663895 610.399963,177.880676
	C610.378906,176.804565 609.620300,175.729828 609.150696,174.678009
	C607.577148,171.153336 606.068054,167.709503 608.772888,163.944397
	C609.603271,162.788467 610.125854,161.137619 610.133789,159.709763
	C610.180420,151.338531 615.097168,145.496521 621.104614,141.087128
	C625.941956,137.536545 631.369568,133.825928 638.209717,134.772873
	C640.009949,135.022095 641.913025,135.099777 643.695557,134.808228
	C652.235779,133.411438 658.927979,137.487366 665.748779,141.678558
	C669.656738,144.079865 674.094788,145.600494 678.166748,147.758102
	C682.377319,149.989197 686.569946,152.307343 690.528748,154.949554
	C698.324524,160.152802 705.970154,165.582169 713.645020,170.964966
	C719.071411,174.770798 724.443604,178.653839 730.041199,182.718170
z"/>
</svg>
